<?xml version="1.0" standalone="no"?>
<!DOCTYPE svg PUBLIC "-//W3C//DTD SVG 20010904//EN"
 "http://www.w3.org/TR/2001/REC-SVG-20010904/DTD/svg10.dtd">
<svg version="1.0" xmlns="http://www.w3.org/2000/svg"
 width="512.000000pt" height="512.000000pt" viewBox="0 0 512.000000 512.000000"
 preserveAspectRatio="xMidYMid meet">
<metadata>
Created by potrace 1.14, written by Peter Selinger 2001-2017
</metadata>
<g transform="translate(0.000000,512.000000) scale(0.100000,-0.100000)"
fill="#000000" stroke="none">
<path d="M615 5104 c-143 -31 -259 -92 -368 -194 -107 -100 -178 -216 -223
-365 -18 -57 -19 -159 -22 -1950 -3 -2062 -5 -1964 53 -2108 89 -221 279 -392
512 -459 l78 -23 1915 0 c2161 0 1960 -8 2138 81 207 104 360 306 407 539 14
72 15 266 13 1970 -3 1791 -4 1893 -22 1950 -81 269 -275 466 -536 547 l-75
23 -1900 2 c-1655 1 -1909 0 -1970 -13z m2225 -944 c514 -86 947 -408 1185
-880 192 -380 217 -875 65 -1288 -233 -637 -843 -1062 -1525 -1062 -623 0
-1177 339 -1456 891 -119 237 -167 464 -165 774 2 193 18 295 72 468 155 491
550 886 1041 1041 74 23 228 58 308 69 54 8 409 -2 475 -13z"/>
<path d="M2445 3480 c-322 -45 -589 -241 -725 -533 -60 -127 -83 -237 -83
-387 0 -158 25 -266 93 -405 111 -227 309 -402 542 -480 139 -45 226 -53 518
-41 191 7 336 72 480 216 144 144 209 289 216 480 7 173 5 322 -5 380 -25 146
-101 310 -203 436 -114 142 -320 271 -497 313 -99 24 -251 33 -336 21z"/>
</g>
</svg>
