<?xml version="1.0" standalone="no"?>
<!DOCTYPE svg PUBLIC "-//W3C//DTD SVG 20010904//EN"
 "http://www.w3.org/TR/2001/REC-SVG-20010904/DTD/svg10.dtd">
<svg version="1.0" xmlns="http://www.w3.org/2000/svg"
 width="512.000000pt" height="512.000000pt" viewBox="0 0 512.000000 512.000000"
 preserveAspectRatio="xMidYMid meet">
<metadata>
Created by potrace 1.14, written by Peter Selinger 2001-2017
</metadata>
<g transform="translate(0.000000,512.000000) scale(0.100000,-0.100000)"
fill="#000000" stroke="none">
<path d="M665 5109 c-311 -44 -570 -281 -642 -588 -17 -72 -18 -183 -18 -1961
0 -1774 1 -1889 18 -1961 65 -277 274 -492 556 -572 l76 -22 1840 -3 c1222 -2
1873 1 1937 7 183 20 328 89 459 220 120 120 194 269 219 437 13 94 13 3694 0
3788 -48 331 -289 583 -622 650 -68 14 -291 16 -1920 15 -1014 -1 -1870 -5
-1903 -10z m2175 -949 c514 -86 947 -408 1185 -880 192 -380 217 -875 65
-1288 -233 -637 -843 -1062 -1525 -1062 -623 0 -1177 339 -1456 891 -119 237
-167 464 -165 774 2 193 18 295 72 468 155 491 550 886 1041 1041 74 23 228
58 308 69 54 8 409 -2 475 -13z"/>
<path d="M2445 3480 c-322 -45 -589 -241 -725 -533 -60 -127 -83 -237 -83
-387 0 -158 25 -266 93 -405 111 -227 309 -402 542 -480 139 -45 226 -53 518
-41 191 7 336 72 480 216 144 144 209 289 216 480 7 173 5 322 -5 380 -25 146
-101 310 -203 436 -114 142 -320 271 -497 313 -99 24 -251 33 -336 21z"/>
</g>
</svg>
