<?xml version="1.0" standalone="no"?>
<!DOCTYPE svg PUBLIC "-//W3C//DTD SVG 20010904//EN"
 "http://www.w3.org/TR/2001/REC-SVG-20010904/DTD/svg10.dtd">
<svg version="1.0" xmlns="http://www.w3.org/2000/svg"
 width="512.000000pt" height="512.000000pt" viewBox="0 0 512.000000 512.000000"
 preserveAspectRatio="xMidYMid meet">
<metadata>
Created by potrace 1.14, written by Peter Selinger 2001-2017
</metadata>
<g transform="translate(0.000000,512.000000) scale(0.100000,-0.100000)"
fill="#000000" stroke="none">
<path d="M2330 4876 l0 -244 -72 -11 c-143 -22 -195 -33 -313 -68 -665 -193
-1185 -713 -1378 -1378 -35 -118 -46 -170 -68 -312 l-11 -73 -244 0 -244 0 0
-229 0 -229 23 -6 c12 -3 56 -6 97 -7 41 0 86 -4 100 -9 21 -6 17 -8 -29 -15
l-53 -8 6 -39 c9 -53 39 -111 73 -138 l28 -22 10 68 c11 68 11 69 18 29 4 -22
7 -56 7 -76 0 -34 2 -37 38 -43 20 -3 72 -6 115 -6 l77 0 0 33 c1 50 20 8 27
-58 3 -30 9 -55 13 -55 4 0 12 -19 19 -42 53 -181 241 -547 327 -639 13 -14
22 -28 18 -31 -3 -4 18 -44 48 -89 51 -81 53 -83 59 -54 7 34 14 22 23 -37 7
-37 20 -48 61 -48 13 0 27 -4 30 -10 4 -6 -7 -10 -24 -10 -17 0 -31 -4 -31 -8
0 -9 147 -179 173 -201 15 -12 17 -10 17 25 0 50 15 75 23 42 4 -12 7 -38 7
-55 0 -30 3 -33 33 -33 17 0 50 -3 72 -7 39 -7 39 -8 -30 -18 l-70 -10 110
-92 110 -91 3 59 c4 79 19 75 24 -6 2 -36 9 -70 15 -76 6 -6 62 -14 124 -17
104 -6 114 -9 115 -27 0 -11 1 -41 2 -66 l2 -46 90 -41 c50 -23 101 -44 115
-48 24 -6 25 -5 25 44 0 28 5 54 10 57 6 4 10 -14 10 -47 0 -29 4 -59 8 -66 6
-9 37 -12 117 -10 107 3 109 3 115 28 6 24 7 23 13 -9 4 -18 7 -88 7 -155 0
-66 4 -127 8 -134 7 -10 76 -12 328 -9 175 3 338 8 362 12 l42 7 0 118 c0 103
2 119 18 125 9 3 65 9 123 12 l106 6 10 36 9 36 8 -37 8 -38 57 0 c60 0 147
27 162 51 5 8 9 35 9 62 0 26 5 47 10 47 6 0 10 -25 10 -55 l0 -54 80 33 c129
55 145 66 148 109 l3 37 -41 0 c-25 0 -39 4 -35 10 3 6 22 10 41 10 26 0 37 5
43 22 l8 22 6 -24 c6 -22 8 -22 79 -16 53 5 83 14 110 32 41 29 48 46 48 127
0 36 4 56 10 52 6 -3 10 -31 10 -61 0 -30 4 -54 9 -54 5 0 44 28 85 63 51 42
70 63 58 64 -127 14 -137 16 -107 24 17 3 59 7 96 8 36 0 70 6 77 13 7 7 12
37 13 68 0 30 4 73 8 95 7 39 8 38 15 -30 4 -38 8 -73 9 -78 1 -4 32 28 69 70
44 52 62 80 55 85 -7 4 -36 8 -66 8 -76 0 -54 14 31 20 66 5 73 7 99 40 23 29
29 49 35 112 7 75 6 78 -17 87 -24 10 -24 10 -1 10 18 1 22 7 22 35 0 19 5 38
10 41 6 4 10 -8 10 -29 0 -35 1 -36 41 -36 l40 0 44 93 c67 143 67 137 0 137
-35 0 -54 4 -50 10 3 6 23 10 43 10 20 0 47 3 58 6 31 8 54 76 54 156 l0 66
-37 7 -38 8 36 9 36 9 6 111 c4 61 12 117 18 124 8 10 41 14 124 14 l113 0 7
43 c4 23 9 187 12 365 l4 322 -133 1 c-73 1 -139 0 -147 -1 -8 -1 -30 2 -50 5
-30 6 -33 9 -16 15 16 6 13 8 -17 14 l-36 7 -36 112 c-19 61 -34 113 -32 114
1 2 14 4 29 5 30 3 26 18 -6 18 -48 0 -67 38 -68 133 -1 74 -17 127 -18 60 -1
-57 -14 -60 -39 -9 -23 49 -21 56 17 56 21 0 23 2 11 10 -8 5 -26 10 -40 10
-15 0 -31 9 -40 23 -20 31 -110 197 -110 203 0 2 10 4 22 4 29 0 11 17 -22 22
-20 2 -27 11 -36 48 -6 25 -13 39 -15 31 -3 -8 -21 11 -44 45 -179 271 -463
530 -749 683 -155 82 -395 171 -548 203 -66 14 -70 18 -83 103 -5 39 -15 57
-46 89 -22 21 -38 40 -37 41 2 1 19 6 38 12 l35 11 -42 1 c-24 1 -43 6 -43 12
0 5 -4 8 -9 5 -16 -10 -21 23 -21 135 l0 109 -230 0 -230 0 0 -244z m510 -716
c514 -86 947 -408 1185 -880 192 -380 217 -875 65 -1288 -233 -637 -843 -1062
-1525 -1062 -623 0 -1177 339 -1456 891 -119 237 -167 464 -165 774 2 193 18
295 72 468 155 491 550 886 1041 1041 74 23 228 58 308 69 54 8 409 -2 475
-13z"/>
<path d="M2445 3480 c-322 -45 -589 -241 -725 -533 -60 -127 -83 -237 -83
-387 0 -158 25 -266 93 -405 111 -227 309 -402 542 -480 139 -45 226 -53 518
-41 191 7 336 72 480 216 144 144 209 289 216 480 7 173 5 322 -5 380 -25 146
-101 310 -203 436 -114 142 -320 271 -497 313 -99 24 -251 33 -336 21z"/>
<path d="M430 2031 c0 -5 18 -13 40 -19 36 -9 40 -8 40 9 0 15 -7 19 -40 19
-22 0 -40 -4 -40 -9z"/>
<path d="M4864 1963 c3 -42 6 -93 6 -115 0 -21 5 -38 10 -38 6 0 10 6 10 13 0
21 50 121 73 145 11 12 45 30 74 38 29 8 53 20 53 25 0 5 -51 9 -116 9 l-117
0 7 -77z"/>
<path d="M4610 1218 c0 -28 2 -49 4 -47 1 2 15 25 30 52 l28 47 -31 0 c-31 0
-31 -1 -31 -52z"/>
<path d="M1630 505 c0 -6 140 -88 144 -84 2 2 6 23 10 47 l6 42 -80 0 c-44 0
-80 -2 -80 -5z"/>
<path d="M3850 485 c0 -31 5 -31 55 0 l40 25 -47 0 c-45 0 -48 -2 -48 -25z"/>
<path d="M3080 146 c0 -65 4 -116 9 -116 5 0 17 24 25 54 19 64 60 105 132
131 70 26 75 35 19 35 -28 0 -80 3 -117 7 l-68 6 0 -117z"/>
<path d="M2225 230 c33 -11 61 -20 63 -20 1 0 2 9 2 20 0 18 -6 20 -62 19
l-63 0 60 -19z"/>
</g>
</svg>
